<svg width="233" height="59" viewBox="0 0 233 59" fill="none" xmlns="http://www.w3.org/2000/svg">
<rect width="233" height="59" fill="white"/>
<path d="M13.584 47.336C10.768 47.336 8.592 46.616 7.056 45.176C5.52 43.704 4.752 41.544 4.752 38.696V15.704H10.752V38.552C10.752 39.768 11.056 40.712 11.664 41.384C12.304 42.056 13.184 42.392 14.304 42.392C15.648 42.392 16.768 42.04 17.664 41.336L19.344 45.608C18.64 46.184 17.776 46.616 16.752 46.904C15.728 47.192 14.672 47.336 13.584 47.336ZM0.528 26.36V21.56H17.616V26.36H0.528ZM24.2798 47V21.368H29.9918V28.424L29.3198 26.36C30.0878 24.632 31.2878 23.32 32.9198 22.424C34.5838 21.528 36.6478 21.08 39.1118 21.08V26.792C38.8558 26.728 38.6158 26.696 38.3918 26.696C38.1678 26.664 37.9438 26.648 37.7198 26.648C35.4478 26.648 33.6398 27.32 32.2958 28.664C30.9518 29.976 30.2798 31.944 30.2798 34.568V47H24.2798ZM44.2016 47V21.368H50.2016V47H44.2016ZM47.2256 17.144C46.1056 17.144 45.1776 16.792 44.4416 16.088C43.7376 15.384 43.3856 14.536 43.3856 13.544C43.3856 12.52 43.7376 11.672 44.4416 11C45.1776 10.296 46.1056 9.944 47.2256 9.944C48.3456 9.944 49.2576 10.28 49.9616 10.952C50.6976 11.592 51.0656 12.408 51.0656 13.4C51.0656 14.456 50.7136 15.352 50.0096 16.088C49.3056 16.792 48.3776 17.144 47.2256 17.144ZM72.2846 47.336C70.2046 47.336 68.3006 46.856 66.5726 45.896C64.8766 44.936 63.5166 43.496 62.4926 41.576C61.5006 39.624 61.0046 37.16 61.0046 34.184C61.0046 31.176 61.4846 28.712 62.4446 26.792C63.4366 24.872 64.7806 23.448 66.4766 22.52C68.1726 21.56 70.1086 21.08 72.2846 21.08C74.8126 21.08 77.0366 21.624 78.9566 22.712C80.9086 23.8 82.4446 25.32 83.5646 27.272C84.7166 29.224 85.2926 31.528 85.2926 34.184C85.2926 36.84 84.7166 39.16 83.5646 41.144C82.4446 43.096 80.9086 44.616 78.9566 45.704C77.0366 46.792 74.8126 47.336 72.2846 47.336ZM58.0766 56.312V21.368H63.7886V27.416L63.5966 34.232L64.0766 41.048V56.312H58.0766ZM71.6126 42.2C73.0526 42.2 74.3326 41.88 75.4526 41.24C76.6046 40.6 77.5166 39.672 78.1886 38.456C78.8606 37.24 79.1966 35.816 79.1966 34.184C79.1966 32.52 78.8606 31.096 78.1886 29.912C77.5166 28.696 76.6046 27.768 75.4526 27.128C74.3326 26.488 73.0526 26.168 71.6126 26.168C70.1726 26.168 68.8766 26.488 67.7246 27.128C66.5726 27.768 65.6606 28.696 64.9886 29.912C64.3166 31.096 63.9806 32.52 63.9806 34.184C63.9806 35.816 64.3166 37.24 64.9886 38.456C65.6606 39.672 66.5726 40.6 67.7246 41.24C68.8766 41.88 70.1726 42.2 71.6126 42.2ZM98.9029 47.336C96.7589 47.336 94.6949 47.064 92.7109 46.52C90.7589 45.944 89.2069 45.256 88.0549 44.456L90.3589 39.896C91.5109 40.632 92.8869 41.24 94.4869 41.72C96.0869 42.2 97.6869 42.44 99.2869 42.44C101.175 42.44 102.535 42.184 103.367 41.672C104.231 41.16 104.663 40.472 104.663 39.608C104.663 38.904 104.375 38.376 103.799 38.024C103.223 37.64 102.471 37.352 101.543 37.16C100.615 36.968 99.5749 36.792 98.4229 36.632C97.3029 36.472 96.1669 36.264 95.0149 36.008C93.8949 35.72 92.8709 35.32 91.9429 34.808C91.0149 34.264 90.2629 33.544 89.6869 32.648C89.1109 31.752 88.8229 30.568 88.8229 29.096C88.8229 27.464 89.2869 26.056 90.2149 24.872C91.1429 23.656 92.4389 22.728 94.1029 22.088C95.7989 21.416 97.7989 21.08 100.103 21.08C101.831 21.08 103.575 21.272 105.335 21.656C107.095 22.04 108.551 22.584 109.703 23.288L107.399 27.848C106.183 27.112 104.951 26.616 103.703 26.36C102.487 26.072 101.271 25.928 100.055 25.928C98.2309 25.928 96.8709 26.2 95.9749 26.744C95.1109 27.288 94.6789 27.976 94.6789 28.808C94.6789 29.576 94.9669 30.152 95.5429 30.536C96.1189 30.92 96.8709 31.224 97.7989 31.448C98.7269 31.672 99.7509 31.864 100.871 32.024C102.023 32.152 103.159 32.36 104.279 32.648C105.399 32.936 106.423 33.336 107.351 33.848C108.311 34.328 109.079 35.016 109.655 35.912C110.231 36.808 110.519 37.976 110.519 39.416C110.519 41.016 110.039 42.408 109.079 43.592C108.151 44.776 106.823 45.704 105.095 46.376C103.367 47.016 101.303 47.336 98.9029 47.336ZM148.038 21.08C150.086 21.08 151.894 21.48 153.462 22.28C155.062 23.08 156.31 24.312 157.206 25.976C158.102 27.608 158.55 29.72 158.55 32.312V47H152.55V33.08C152.55 30.808 152.054 29.112 151.062 27.992C150.07 26.872 148.646 26.312 146.79 26.312C145.478 26.312 144.31 26.6 143.286 27.176C142.294 27.752 141.51 28.6 140.934 29.72C140.39 30.84 140.118 32.264 140.118 33.992V47H134.118V33.08C134.118 30.808 133.622 29.112 132.63 27.992C131.638 26.872 130.214 26.312 128.358 26.312C127.046 26.312 125.878 26.6 124.854 27.176C123.862 27.752 123.078 28.6 122.502 29.72C121.958 30.84 121.686 32.264 121.686 33.992V47H115.686V21.368H121.398V28.184L120.39 26.168C121.254 24.504 122.502 23.24 124.134 22.376C125.798 21.512 127.686 21.08 129.798 21.08C132.198 21.08 134.278 21.672 136.038 22.856C137.83 24.04 139.014 25.832 139.59 28.232L137.238 27.416C138.07 25.496 139.446 23.96 141.366 22.808C143.286 21.656 145.51 21.08 148.038 21.08ZM182.009 47V41.816L181.673 40.712V31.64C181.673 29.88 181.145 28.52 180.089 27.56C179.033 26.568 177.433 26.072 175.289 26.072C173.849 26.072 172.425 26.296 171.017 26.744C169.641 27.192 168.473 27.816 167.513 28.616L165.161 24.248C166.537 23.192 168.169 22.408 170.057 21.896C171.977 21.352 173.961 21.08 176.009 21.08C179.721 21.08 182.585 21.976 184.601 23.768C186.649 25.528 187.673 28.264 187.673 31.976V47H182.009ZM173.945 47.336C172.025 47.336 170.345 47.016 168.905 46.376C167.465 45.704 166.345 44.792 165.545 43.64C164.777 42.456 164.393 41.128 164.393 39.656C164.393 38.216 164.729 36.92 165.401 35.768C166.105 34.616 167.241 33.704 168.809 33.032C170.377 32.36 172.457 32.024 175.049 32.024H182.489V36.008H175.481C173.433 36.008 172.057 36.344 171.353 37.016C170.649 37.656 170.297 38.456 170.297 39.416C170.297 40.504 170.729 41.368 171.593 42.008C172.457 42.648 173.657 42.968 175.193 42.968C176.665 42.968 177.977 42.632 179.129 41.96C180.313 41.288 181.161 40.296 181.673 38.984L182.681 42.584C182.105 44.088 181.065 45.256 179.561 46.088C178.089 46.92 176.217 47.336 173.945 47.336ZM195.374 47V21.368H201.086V28.424L200.414 26.36C201.182 24.632 202.382 23.32 204.014 22.424C205.678 21.528 207.742 21.08 210.206 21.08V26.792C209.95 26.728 209.71 26.696 209.486 26.696C209.262 26.664 209.038 26.648 208.814 26.648C206.542 26.648 204.734 27.32 203.39 28.664C202.046 29.976 201.374 31.944 201.374 34.568V47H195.374ZM225.881 47.336C223.065 47.336 220.889 46.616 219.353 45.176C217.817 43.704 217.049 41.544 217.049 38.696V15.704H223.049V38.552C223.049 39.768 223.353 40.712 223.961 41.384C224.601 42.056 225.481 42.392 226.601 42.392C227.945 42.392 229.065 42.04 229.961 41.336L231.641 45.608C230.937 46.184 230.073 46.616 229.049 46.904C228.025 47.192 226.969 47.336 225.881 47.336ZM212.825 26.36V21.56H229.913V26.36H212.825Z" fill="#00C2E5"/>
</svg>
